<svg xmlns="http://www.w3.org/2000/svg" width="36.306" height="35.127" viewBox="0 0 36.306 35.127"><g transform="translate(0)"><path d="M37.009,17.054a1.276,1.276,0,0,0-1.3,1.255H34.35a13.5,13.5,0,0,0-3.242-7.57l.966-.935a1.327,1.327,0,0,0,1.834,0,1.226,1.226,0,0,0,0-1.774L32.071,6.258a1.327,1.327,0,0,0-1.834,0,1.226,1.226,0,0,0,0,1.774l-.966.934a14.449,14.449,0,0,0-7.823-3.139V4.509a1.276,1.276,0,0,0,1.3-1.255A1.276,1.276,0,0,0,21.449,2H18.856a1.276,1.276,0,0,0-1.3,1.255,1.276,1.276,0,0,0,1.3,1.255V5.828a14.45,14.45,0,0,0-7.824,3.136l-.965-.932a1.226,1.226,0,0,0,0-1.774,1.328,1.328,0,0,0-1.834,0L6.4,8.032a1.226,1.226,0,0,0,0,1.774,1.328,1.328,0,0,0,1.834,0l.965.933a13.5,13.5,0,0,0-3.243,7.57H4.593a1.276,1.276,0,0,0-1.3-1.255A1.276,1.276,0,0,0,2,18.309v2.509a1.276,1.276,0,0,0,1.3,1.255,1.276,1.276,0,0,0,1.3-1.255H5.956A13.5,13.5,0,0,0,9.2,28.388l-.966.935a1.327,1.327,0,0,0-1.834,0,1.226,1.226,0,0,0,0,1.774L8.232,32.87a1.327,1.327,0,0,0,1.834,0,1.226,1.226,0,0,0,0-1.774l.966-.934A14.45,14.45,0,0,0,18.856,33.3v1.319a1.255,1.255,0,1,0,0,2.509h2.593a1.255,1.255,0,1,0,0-2.509V33.3a14.45,14.45,0,0,0,7.824-3.136l.966.935a1.226,1.226,0,0,0,0,1.774,1.328,1.328,0,0,0,1.834,0L33.906,31.1a1.226,1.226,0,0,0,0-1.774,1.328,1.328,0,0,0-1.834,0l-.966-.934a13.5,13.5,0,0,0,3.243-7.571h1.363a1.3,1.3,0,0,0,2.593,0V18.309A1.276,1.276,0,0,0,37.009,17.054Zm-16.856,13.8A11.485,11.485,0,0,1,8.483,19.563,11.485,11.485,0,0,1,20.153,8.273a11.485,11.485,0,0,1,11.67,11.291A11.5,11.5,0,0,1,20.153,30.854Z" transform="translate(-2 -2)" fill="#ea4659"/><path d="M20.538,14a4.538,4.538,0,1,0,4.538,4.538A4.538,4.538,0,0,0,20.538,14Zm0,6.483a1.945,1.945,0,1,1,1.945-1.945A1.945,1.945,0,0,1,20.538,20.483Z" transform="translate(2.153 0.886)" fill="#ea4659"/><path d="M18.78,12.89a3.89,3.89,0,1,0-3.89,3.89A3.89,3.89,0,0,0,18.78,12.89Zm-3.89,1.3a1.3,1.3,0,1,1,1.3-1.3A1.3,1.3,0,0,1,14.89,14.187Z" transform="translate(0.67 -0.299)" fill="#ea4659"/><path d="M13.242,17a3.242,3.242,0,1,0,3.242,3.242A3.242,3.242,0,0,0,13.242,17Zm0,3.89a.648.648,0,1,1,.648-.648A.648.648,0,0,1,13.242,20.89Z" transform="translate(0.373 1.681)" fill="#ea4659"/></g></svg>