<svg xmlns="http://www.w3.org/2000/svg" width="105.844" height="105.844" viewBox="0 0 105.844 105.844"><g transform="translate(-2 -2)"><path d="M104.064,47.362a3.78,3.78,0,0,0-3.78,3.78H96.311a41.381,41.381,0,0,0-9.45-22.809l2.816-2.816a3.78,3.78,0,1,0,5.346-5.346L89.669,14.83a3.78,3.78,0,1,0-5.346,5.346l-2.816,2.816A41.381,41.381,0,0,0,58.7,13.533V9.56A3.78,3.78,0,0,0,58.7,2h-7.56a3.78,3.78,0,0,0,0,7.56v3.973a41.381,41.381,0,0,0-22.809,9.45L25.52,20.175a3.78,3.78,0,1,0-5.346-5.346L14.83,20.175a3.78,3.78,0,1,0,5.346,5.346l2.812,2.812a41.381,41.381,0,0,0-9.454,22.809H9.56a3.78,3.78,0,0,0-7.56,0V58.7a3.78,3.78,0,0,0,7.56,0h3.973a41.381,41.381,0,0,0,9.45,22.809l-2.816,2.816a3.78,3.78,0,1,0-5.346,5.346l5.346,5.345a3.78,3.78,0,1,0,5.346-5.346l2.816-2.816a41.382,41.382,0,0,0,22.813,9.454v3.973a3.78,3.78,0,1,0,0,7.56H58.7a3.78,3.78,0,0,0,0-7.56V96.311a41.381,41.381,0,0,0,22.809-9.45l2.816,2.816a3.78,3.78,0,1,0,5.346,5.346l5.345-5.346a3.78,3.78,0,1,0-5.346-5.346l-2.816-2.816A41.381,41.381,0,0,0,96.311,58.7h3.973a3.78,3.78,0,0,0,7.56,0v-7.56A3.78,3.78,0,0,0,104.064,47.362ZM54.922,88.944A34.021,34.021,0,1,1,88.944,54.922,34.021,34.021,0,0,1,54.922,88.944Z" fill="#ea4659"/><path d="M29.231,14A13.231,13.231,0,1,0,42.461,27.231,13.231,13.231,0,0,0,29.231,14Zm0,18.9a5.67,5.67,0,1,1,5.67-5.67A5.67,5.67,0,0,1,29.231,32.9Z" transform="translate(38.922 33.362)" fill="#ea4659"/><path d="M33.681,20.34a11.34,11.34,0,1,0-11.34,11.34A11.34,11.34,0,0,0,33.681,20.34Zm-11.34,3.78a3.78,3.78,0,1,1,3.78-3.78A3.78,3.78,0,0,1,22.34,24.121Z" transform="translate(25.021 19.461)" fill="#ea4659"/><path d="M19.45,17a9.45,9.45,0,1,0,9.45,9.45A9.45,9.45,0,0,0,19.45,17Zm0,11.34a1.89,1.89,0,1,1,1.89-1.89A1.89,1.89,0,0,1,19.45,28.34Z" transform="translate(22.241 41.702)" fill="#ea4659"/></g></svg>