<svg xmlns="http://www.w3.org/2000/svg" width="122.106" height="124.266" viewBox="0 0 122.106 124.266"><path d="M146.141,113.109a1.918,1.918,0,0,1-1.313-3.316A40.709,40.709,0,0,1,164.1,99.669a1.918,1.918,0,1,1,.808,3.749,36.873,36.873,0,0,0-17.455,9.171A1.911,1.911,0,0,1,146.141,113.109Z" transform="translate(-112.759 -77.786)" fill="#ea4559"/><path d="M104.187,176.492a1.919,1.919,0,0,1-1.842-2.455,40.551,40.551,0,0,1,5.692-11.883,1.918,1.918,0,1,1,3.145,2.195,36.724,36.724,0,0,0-5.155,10.761A1.919,1.919,0,0,1,104.187,176.492Z" transform="translate(-81.532 -123.717)" fill="#ea4559"/><path d="M99.26,255.926a1.918,1.918,0,0,1-1.861-1.46,40.951,40.951,0,0,1-1.18-9.776q0-.986.046-1.96a1.918,1.918,0,0,1,3.831.182q-.042.884-.042,1.778a37.111,37.111,0,0,0,1.068,8.859,1.919,1.919,0,0,1-1.864,2.376Z" transform="translate(-77.03 -182.94)" fill="#ea4559"/><path d="M119.918,326a1.911,1.911,0,0,1-1.317-.524,40.646,40.646,0,0,1-9.312-13.173,1.918,1.918,0,0,1,3.508-1.551,36.831,36.831,0,0,0,8.439,11.936A1.918,1.918,0,0,1,119.918,326Z" transform="translate(-86.636 -234.076)" fill="#ea4559"/><path d="M183.372,386.814a1.922,1.922,0,0,1-.4-.042,40.469,40.469,0,0,1-12.688-5.03,1.918,1.918,0,1,1,1.992-3.277,36.645,36.645,0,0,0,11.489,4.555,1.918,1.918,0,0,1-.395,3.794Z" transform="translate(-131.472 -285.12)" fill="#ea4559"/><path d="M250.137,397.9a1.918,1.918,0,1,1,0-3.835,36.88,36.88,0,0,0,12.045-2.007,1.918,1.918,0,0,1,1.25,3.626A40.71,40.71,0,0,1,250.137,397.9Z" transform="translate(-190.164 -295.367)" fill="#ea4559"/><path d="M334.991,357.914a1.918,1.918,0,0,1-1.074-3.508,37.158,37.158,0,0,0,7.434-6.62,1.918,1.918,0,1,1,2.911,2.5,40.988,40.988,0,0,1-8.2,7.3A1.909,1.909,0,0,1,334.991,357.914Z" transform="translate(-253.321 -261.996)" fill="#ea4559"/><path d="M381.215,294.537a1.918,1.918,0,0,1-1.651-2.891,36.641,36.641,0,0,0,4.333-11.267,1.918,1.918,0,0,1,3.757.769,40.466,40.466,0,0,1-4.785,12.444A1.917,1.917,0,0,1,381.215,294.537Z" transform="translate(-287.728 -211.181)" fill="#ea4559"/><path d="M400.01,230.105a1.918,1.918,0,0,1-1.918-1.918,37.241,37.241,0,0,0-.694-7.168,1.918,1.918,0,1,1,3.763-.74,41.085,41.085,0,0,1,.767,7.908A1.918,1.918,0,0,1,400.01,230.105Z" transform="translate(-301.172 -166.438)" fill="#ea4559"/><path d="M361.452,149.344a1.916,1.916,0,0,1-1.583-.833,37.23,37.23,0,0,0-4.613-5.5,1.918,1.918,0,1,1,2.687-2.737,41.077,41.077,0,0,1,5.089,6.066,1.918,1.918,0,0,1-1.58,3Z" transform="translate(-269.406 -107.634)" fill="#ea4559"/><path d="M291.318,108.3a1.909,1.909,0,0,1-1.067-.325,36.535,36.535,0,0,0-14.169-5.693,1.918,1.918,0,1,1,.659-3.778,40.346,40.346,0,0,1,15.647,6.286,1.918,1.918,0,0,1-1.07,3.51Z" transform="translate(-209.721 -76.931)" fill="#ea4559"/><g transform="translate(53.452 0)"><path d="M-.98-7.5A6.528,6.528,0,0,1,5.54-.98,6.528,6.528,0,0,1-.98,5.54,6.528,6.528,0,0,1-7.5-.98,6.528,6.528,0,0,1-.98-7.5Zm0,9.2A2.688,2.688,0,0,0,1.7-.98,2.688,2.688,0,0,0-.98-3.665,2.688,2.688,0,0,0-3.665-.98,2.688,2.688,0,0,0-.98,1.7Z" transform="translate(7.5 7.5)" fill="#ea4559"/><path d="M-5.582,12.955A1.918,1.918,0,0,1-7.5,11.038V-5.582A1.918,1.918,0,0,1-5.582-7.5,1.918,1.918,0,0,1-3.665-5.582v16.62A1.918,1.918,0,0,1-5.582,12.955Z" transform="translate(12.102 16.705)" fill="#ea4559"/></g><g transform="translate(14.076 14.574)"><path d="M-.98-7.5A6.528,6.528,0,0,1,5.54-.98,6.528,6.528,0,0,1-.98,5.54,6.528,6.528,0,0,1-7.5-.98,6.528,6.528,0,0,1-.98-7.5Zm0,9.2A2.688,2.688,0,0,0,1.7-.98,2.688,2.688,0,0,0-.98-3.665,2.688,2.688,0,0,0-3.665-.98,2.688,2.688,0,0,0-.98,1.7Z" transform="translate(7.5 7.5)" fill="#ea4559"/><path d="M6.17,8.088a1.912,1.912,0,0,1-1.356-.562L-6.938-4.226a1.918,1.918,0,0,1,0-2.712,1.918,1.918,0,0,1,2.712,0L7.526,4.814A1.918,1.918,0,0,1,6.17,8.088Z" transform="translate(15.357 15.357)" fill="#ea4559"/></g><g transform="translate(9.097 41.899)"><path d="M-.98-7.5A6.528,6.528,0,0,1,5.54-.98,6.528,6.528,0,0,1-.98,5.54,6.528,6.528,0,0,1-7.5-.98,6.528,6.528,0,0,1-.98-7.5Zm0,9.2A2.688,2.688,0,0,0,1.7-.98,2.688,2.688,0,0,0-.98-3.665,2.688,2.688,0,0,0-3.665-.98,2.688,2.688,0,0,0-.98,1.7Z" transform="translate(7.5 7.5)" fill="#ea4559"/><path d="M3.346.18A1.911,1.911,0,0,1,2.589.023L-6.342-3.822a1.918,1.918,0,0,1-1-2.52,1.918,1.918,0,0,1,2.52-1L4.105-3.5a1.918,1.918,0,0,1,1,2.52A1.918,1.918,0,0,1,3.346.18Z" transform="translate(16.334 13.918)" fill="#ea4559"/></g><g transform="translate(82.345 36.814)"><path d="M-.98-7.5A6.528,6.528,0,0,1,5.54-.98,6.528,6.528,0,0,1-.98,5.54,6.528,6.528,0,0,1-7.5-.98,6.528,6.528,0,0,1-.98-7.5Zm0,9.2A2.688,2.688,0,0,0,1.7-.98,2.688,2.688,0,0,0-.98-3.665,2.688,2.688,0,0,0-3.665-.98,2.688,2.688,0,0,0-.98,1.7Z" transform="translate(14.405 7.5)" fill="#ea4559"/><path d="M-5.581,1.254A1.916,1.916,0,0,1-7.2.374a1.918,1.918,0,0,1,.575-2.65L1.023-7.2a1.918,1.918,0,0,1,2.65.575A1.918,1.918,0,0,1,3.1-3.97L-4.545.949A1.909,1.909,0,0,1-5.581,1.254Z" transform="translate(7.501 14.604)" fill="#ea4559"/></g><g transform="translate(75.953 88.725)"><path d="M-.98-7.5A6.528,6.528,0,0,1,5.54-.98,6.528,6.528,0,0,1-.98,5.54,6.528,6.528,0,0,1-7.5-.98,6.528,6.528,0,0,1-.98-7.5Zm0,9.2A2.688,2.688,0,0,0,1.7-.98,2.688,2.688,0,0,0-.98-3.665,2.688,2.688,0,0,0-3.665-.98,2.688,2.688,0,0,0-.98,1.7Z" transform="translate(9.909 12.153)" fill="#ea4559"/><path d="M-1.342,1.917A1.915,1.915,0,0,1-2.87,1.159L-7.11-4.423A1.918,1.918,0,0,1-6.742-7.11a1.918,1.918,0,0,1,2.687.367L.184-1.161A1.918,1.918,0,0,1-.183,1.526,1.909,1.909,0,0,1-1.342,1.917Z" transform="translate(7.5 7.5)" fill="#ea4559"/></g><g transform="translate(82.425 14.574)"><path d="M-.98-7.5A6.528,6.528,0,0,1,5.54-.98,6.528,6.528,0,0,1-.98,5.54,6.528,6.528,0,0,1-7.5-.98,6.528,6.528,0,0,1-.98-7.5Zm0,9.2A2.688,2.688,0,0,0,1.7-.98,2.688,2.688,0,0,0-.98-3.665,2.688,2.688,0,0,0-3.665-.98,2.688,2.688,0,0,0-.98,1.7Z" transform="translate(17.904 7.5)" fill="#ea4559"/><path d="M-5.582,8.088a1.912,1.912,0,0,1-1.356-.562,1.918,1.918,0,0,1,0-2.712L4.814-6.938a1.918,1.918,0,0,1,2.712,0,1.918,1.918,0,0,1,0,2.712L-4.226,7.526A1.912,1.912,0,0,1-5.582,8.088Z" transform="translate(7.5 15.357)" fill="#ea4559"/></g><g transform="translate(53.452 94.606)"><path d="M-.98-7.5A6.528,6.528,0,0,1,5.54-.98,6.528,6.528,0,0,1-.98,5.54,6.528,6.528,0,0,1-7.5-.98,6.528,6.528,0,0,1-.98-7.5Zm0,9.2A2.688,2.688,0,0,0,1.7-.98,2.688,2.688,0,0,0-.98-3.665,2.688,2.688,0,0,0-3.665-.98,2.688,2.688,0,0,0-.98,1.7Z" transform="translate(7.5 24.12)" fill="#ea4559"/><path d="M-5.582,12.955A1.918,1.918,0,0,1-7.5,11.038V-5.582A1.918,1.918,0,0,1-5.582-7.5,1.918,1.918,0,0,1-3.665-5.582v16.62A1.918,1.918,0,0,1-5.582,12.955Z" transform="translate(12.102 7.5)" fill="#ea4559"/></g><g transform="translate(0 67.501)"><path d="M-.98-7.5A6.528,6.528,0,0,1,5.54-.98,6.528,6.528,0,0,1-.98,5.54,6.528,6.528,0,0,1-7.5-.98,6.528,6.528,0,0,1-.98-7.5Zm0,9.2A2.688,2.688,0,0,0,1.7-.98,2.688,2.688,0,0,0-.98-3.665,2.688,2.688,0,0,0-3.665-.98,2.688,2.688,0,0,0-.98,1.7Z" transform="translate(7.5 7.5)" fill="#ea4559"/><path d="M-5.585-.962a1.918,1.918,0,0,1-1.89-1.606,1.918,1.918,0,0,1,1.58-2.2l16.4-2.7a1.918,1.918,0,0,1,2.2,1.58,1.918,1.918,0,0,1-1.58,2.2l-16.4,2.7A1.931,1.931,0,0,1-5.585-.962Z" transform="translate(16.644 8.652)" fill="#ea4559"/></g><g transform="translate(92.445 55.613)"><path d="M-.98-7.5A6.528,6.528,0,0,1,5.54-.98,6.528,6.528,0,0,1-.98,5.54,6.528,6.528,0,0,1-7.5-.98,6.528,6.528,0,0,1-.98-7.5Zm0,9.2A2.688,2.688,0,0,0,1.7-.98,2.688,2.688,0,0,0-.98-3.665,2.688,2.688,0,0,0-3.665-.98,2.688,2.688,0,0,0-.98,1.7Z" transform="translate(24.12 7.5)" fill="#ea4559"/><path d="M11.038-3.665H-5.582A1.918,1.918,0,0,1-7.5-5.582,1.918,1.918,0,0,1-5.582-7.5h16.62a1.918,1.918,0,0,1,1.918,1.918A1.918,1.918,0,0,1,11.038-3.665Z" transform="translate(7.5 12.102)" fill="#ea4559"/></g><g transform="translate(85.495 76.078)"><path d="M-.98-7.5A6.528,6.528,0,0,1,5.54-.98,6.528,6.528,0,0,1-.98,5.54,6.528,6.528,0,0,1-7.5-.98,6.528,6.528,0,0,1-.98-7.5Zm0,9.2A2.688,2.688,0,0,0,1.7-.98,2.688,2.688,0,0,0-.98-3.665,2.688,2.688,0,0,0-3.665-.98,2.688,2.688,0,0,0-.98,1.7Z" transform="translate(20.423 14.867)" fill="#ea4559"/><path d="M8.14,5.709a1.909,1.909,0,0,1-1.08-.334L-6.664-4a1.918,1.918,0,0,1-.5-2.665,1.918,1.918,0,0,1,2.665-.5L9.223,2.207a1.918,1.918,0,0,1-1.083,3.5Z" transform="translate(7.501 7.501)" fill="#ea4559"/></g><g transform="translate(14.076 86.247)"><path d="M-.98-7.5A6.528,6.528,0,0,1,5.54-.98,6.528,6.528,0,0,1-.98,5.54,6.528,6.528,0,0,1-7.5-.98,6.528,6.528,0,0,1-.98-7.5Zm0,9.2A2.688,2.688,0,0,0,1.7-.98,2.688,2.688,0,0,0-.98-3.665,2.688,2.688,0,0,0-3.665-.98,2.688,2.688,0,0,0-.98,1.7Z" transform="translate(7.5 17.904)" fill="#ea4559"/><path d="M-5.582,8.088a1.912,1.912,0,0,1-1.356-.562,1.918,1.918,0,0,1,0-2.712L4.814-6.938a1.918,1.918,0,0,1,2.712,0,1.918,1.918,0,0,1,0,2.712L-4.226,7.526A1.912,1.912,0,0,1-5.582,8.088Z" transform="translate(15.357 7.5)" fill="#ea4559"/></g><path d="M-.98-7.5A6.528,6.528,0,0,1,5.54-.98,6.528,6.528,0,0,1-.98,5.54,6.528,6.528,0,0,1-7.5-.98,6.528,6.528,0,0,1-.98-7.5Zm0,9.2A2.688,2.688,0,0,0,1.7-.98,2.688,2.688,0,0,0-.98-3.665,2.688,2.688,0,0,0-3.665-.98,2.688,2.688,0,0,0-.98,1.7Z" transform="translate(50.469 41.763)" fill="#ea4559"/><path d="M-2.386-7.5A5.12,5.12,0,0,1,2.728-2.386,5.12,5.12,0,0,1-2.386,2.728,5.12,5.12,0,0,1-7.5-2.386,5.12,5.12,0,0,1-2.386-7.5Zm0,6.392A1.28,1.28,0,0,0-1.108-2.386,1.28,1.28,0,0,0-2.386-3.665,1.28,1.28,0,0,0-3.665-2.386,1.28,1.28,0,0,0-2.386-1.108Z" transform="translate(72.714 43.808)" fill="#ea4559"/><path d="M-2.386-7.5A5.12,5.12,0,0,1,2.728-2.386,5.12,5.12,0,0,1-2.386,2.728,5.12,5.12,0,0,1-7.5-2.386,5.12,5.12,0,0,1-2.386-7.5Zm0,6.392A1.28,1.28,0,0,0-1.108-2.386,1.28,1.28,0,0,0-2.386-3.665,1.28,1.28,0,0,0-3.665-2.386,1.28,1.28,0,0,0-2.386-1.108Z" transform="translate(42.543 61.451)" fill="#ea4559"/><path d="M-2.386-7.5A5.12,5.12,0,0,1,2.728-2.386,5.12,5.12,0,0,1-2.386,2.728,5.12,5.12,0,0,1-7.5-2.386,5.12,5.12,0,0,1-2.386-7.5Zm0,6.392A1.28,1.28,0,0,0-1.108-2.386,1.28,1.28,0,0,0-2.386-3.665,1.28,1.28,0,0,0-3.665-2.386,1.28,1.28,0,0,0-2.386-1.108Z" transform="translate(45.611 81.395)" fill="#ea4559"/><path d="M-2.386-7.5A5.12,5.12,0,0,1,2.728-2.386,5.12,5.12,0,0,1-2.386,2.728,5.12,5.12,0,0,1-7.5-2.386,5.12,5.12,0,0,1-2.386-7.5Zm0,6.392A1.28,1.28,0,0,0-1.108-2.386,1.28,1.28,0,0,0-2.386-3.665,1.28,1.28,0,0,0-3.665-2.386,1.28,1.28,0,0,0-2.386-1.108Z" transform="translate(86.01 72.19)" fill="#ea4559"/><path d="M-.98-7.5A6.528,6.528,0,0,1,5.54-.98,6.528,6.528,0,0,1-.98,5.54,6.528,6.528,0,0,1-7.5-.98,6.528,6.528,0,0,1-.98-7.5Zm0,9.2A2.688,2.688,0,0,0,1.7-.98,2.688,2.688,0,0,0-.98-3.665,2.688,2.688,0,0,0-3.665-.98,2.688,2.688,0,0,0-.98,1.7Z" transform="translate(65.555 82.418)" fill="#ea4559"/><path d="M.3-7.5A7.807,7.807,0,0,1,8.1.3,7.807,7.807,0,0,1,.3,8.1,7.807,7.807,0,0,1-7.5.3,7.807,7.807,0,0,1,.3-7.5ZM.3,4.262A3.968,3.968,0,0,0,4.262.3,3.968,3.968,0,0,0,.3-3.665,3.968,3.968,0,0,0-3.665.3,3.968,3.968,0,0,0,.3,4.262Z" transform="translate(64.021 59.661)" fill="#ea4559"/></svg>