<svg xmlns="http://www.w3.org/2000/svg" width="443.553" height="451.401" viewBox="0 0 443.553 451.401"><g opacity="0.437"><path d="M151.19,148.6a6.966,6.966,0,0,1-4.769-12.046,147.877,147.877,0,0,1,70-36.776,6.966,6.966,0,1,1,2.935,13.619,133.943,133.943,0,0,0-63.4,33.316A6.942,6.942,0,0,1,151.19,148.6Z" transform="translate(-29.93 -20.294)" fill="#e6e6e6"/><path d="M109.239,216.4a6.972,6.972,0,0,1-6.691-8.917,147.3,147.3,0,0,1,20.675-43.165,6.966,6.966,0,1,1,11.425,7.973,133.4,133.4,0,0,0-18.725,39.09A6.969,6.969,0,0,1,109.239,216.4Z" transform="translate(-26.943 -24.688)" fill="#e6e6e6"/><path d="M107.264,295.474a6.969,6.969,0,0,1-6.759-5.3,148.754,148.754,0,0,1-4.285-35.511q0-3.581.168-7.121a6.966,6.966,0,0,1,13.917.661q-.152,3.211-.153,6.46a134.807,134.807,0,0,0,3.881,32.182,6.972,6.972,0,0,1-6.77,8.632Z" transform="translate(-26.513 -30.352)" fill="#e6e6e6"/><path d="M148.332,369.143a6.941,6.941,0,0,1-4.783-1.9,147.647,147.647,0,0,1-33.827-47.851,6.966,6.966,0,0,1,12.743-5.633,133.79,133.79,0,0,0,30.653,43.358,6.966,6.966,0,0,1-4.786,12.029Z" transform="translate(-27.432 -35.243)" fill="#e6e6e6"/><path d="M220.25,409.529a6.981,6.981,0,0,1-1.447-.152A147.007,147.007,0,0,1,172.712,391.1a6.966,6.966,0,1,1,7.238-11.9,133.114,133.114,0,0,0,41.734,16.546,6.967,6.967,0,0,1-1.433,13.783Z" transform="translate(-31.72 -40.125)" fill="#e6e6e6"/><path d="M255.185,413.558a6.966,6.966,0,1,1,0-13.932,133.968,133.968,0,0,0,43.755-7.292,6.966,6.966,0,0,1,4.54,13.172A147.88,147.88,0,0,1,255.185,413.558Z" transform="translate(-37.334 -41.105)" fill="#e6e6e6"/><path d="M340.044,386.339a6.967,6.967,0,0,1-3.9-12.743,134.973,134.973,0,0,0,27-24.047,6.966,6.966,0,1,1,10.575,9.07,148.894,148.894,0,0,1-29.791,26.53A6.936,6.936,0,0,1,340.044,386.339Z" transform="translate(-43.374 -37.914)" fill="#e6e6e6"/><path d="M386.259,335.846a6.968,6.968,0,0,1-6-10.5A133.1,133.1,0,0,0,396,284.416a6.966,6.966,0,0,1,13.649,2.793,146.993,146.993,0,0,1-17.383,45.2A6.963,6.963,0,0,1,386.259,335.846Z" transform="translate(-46.665 -33.053)" fill="#e6e6e6"/><path d="M406.983,260.047a6.966,6.966,0,0,1-6.966-6.966,135.277,135.277,0,0,0-2.523-26.038,6.966,6.966,0,1,1,13.67-2.688,149.239,149.239,0,0,1,2.785,28.726A6.966,6.966,0,0,1,406.983,260.047Z" transform="translate(-47.951 -28.774)" fill="#e6e6e6"/><path d="M379.276,174.662a6.958,6.958,0,0,1-5.751-3.026,135.236,135.236,0,0,0-16.756-19.972,6.966,6.966,0,1,1,9.759-9.943,149.218,149.218,0,0,1,18.486,22.034,6.967,6.967,0,0,1-5.738,10.907Z" transform="translate(-44.913 -23.149)" fill="#e6e6e6"/><path d="M335.609,134.166a6.933,6.933,0,0,1-3.875-1.182,132.713,132.713,0,0,0-51.469-20.679,6.966,6.966,0,1,1,2.392-13.725A146.556,146.556,0,0,1,339.5,121.415a6.967,6.967,0,0,1-3.887,12.751Z" transform="translate(-39.204 -20.213)" fill="#e6e6e6"/><g transform="translate(194.168 0)"><path d="M16.185-7.5A23.685,23.685,0,1,1-7.5,16.185,23.711,23.711,0,0,1,16.185-7.5Zm0,33.437a9.752,9.752,0,1,0-9.752-9.752A9.764,9.764,0,0,0,16.185,25.937Z" transform="translate(7.5 7.5)" fill="#e6e6e6"/><path d="M-.534,66.8A6.966,6.966,0,0,1-7.5,59.839V-.534A6.966,6.966,0,0,1-.534-7.5,6.966,6.966,0,0,1,6.432-.534V59.839A6.966,6.966,0,0,1-.534,66.8Z" transform="translate(24.219 40.937)" fill="#e6e6e6"/></g><g transform="translate(51.131 52.942)"><path d="M16.185-7.5A23.685,23.685,0,1,1-7.5,16.185,23.711,23.711,0,0,1,16.185-7.5Zm0,33.437a9.752,9.752,0,1,0-9.752-9.752A9.764,9.764,0,0,0,16.185,25.937Z" transform="translate(7.5 7.5)" fill="#e6e6e6"/><path d="M42.156,49.122a6.944,6.944,0,0,1-4.926-2.04L-5.46,4.392a6.966,6.966,0,0,1,0-9.852,6.966,6.966,0,0,1,9.852,0l42.69,42.69a6.966,6.966,0,0,1-4.926,11.892Z" transform="translate(36.04 36.04)" fill="#e6e6e6"/></g><g transform="translate(33.046 152.2)"><path d="M16.185-7.5A23.685,23.685,0,1,1-7.5,16.185,23.711,23.711,0,0,1,16.185-7.5Zm0,33.437a9.752,9.752,0,1,0-9.752-9.752A9.764,9.764,0,0,0,16.185,25.937Z" transform="translate(7.5 7.5)" fill="#e6e6e6"/><path d="M31.9,20.4a6.942,6.942,0,0,1-2.752-.57L-3.289,5.864A6.966,6.966,0,0,1-6.932-3.289,6.966,6.966,0,0,1,2.221-6.932L34.662,7.036A6.967,6.967,0,0,1,31.9,20.4Z" transform="translate(39.584 30.809)" fill="#e6e6e6"/></g><g transform="translate(299.122 133.728)"><path d="M16.185-7.5A23.685,23.685,0,1,1-7.5,16.185,23.711,23.711,0,0,1,16.185-7.5Zm0,33.437a9.752,9.752,0,1,0-9.752-9.752A9.764,9.764,0,0,0,16.185,25.937Z" transform="translate(32.583 7.5)" fill="#e6e6e6"/><path d="M-.527,24.3a6.96,6.96,0,0,1-5.864-3.2A6.966,6.966,0,0,1-4.3,11.479L23.463-6.392A6.966,6.966,0,0,1,33.091-4.3,6.966,6.966,0,0,1,31,5.324L3.236,23.194A6.934,6.934,0,0,1-.527,24.3Z" transform="translate(7.501 33.304)" fill="#e6e6e6"/></g><g transform="translate(275.903 322.297)"><path d="M16.185-7.5A23.685,23.685,0,1,1-7.5,16.185,23.711,23.711,0,0,1,16.185-7.5Zm0,33.437a9.752,9.752,0,1,0-9.752-9.752A9.764,9.764,0,0,0,16.185,25.937Z" transform="translate(16.253 24.402)" fill="#e6e6e6"/><path d="M14.871,26.708a6.955,6.955,0,0,1-5.553-2.753L-6.081,3.679A6.966,6.966,0,0,1-4.747-6.081,6.966,6.966,0,0,1,5.013-4.747l15.4,20.276a6.967,6.967,0,0,1-5.542,11.18Z" transform="translate(7.5 7.5)" fill="#e6e6e6"/></g><g transform="translate(299.411 52.942)"><path d="M16.185-7.5A23.685,23.685,0,1,1-7.5,16.185,23.711,23.711,0,0,1,16.185-7.5Zm0,33.437a9.752,9.752,0,1,0-9.752-9.752A9.764,9.764,0,0,0,16.185,25.937Z" transform="translate(45.293 7.5)" fill="#e6e6e6"/><path d="M-.534,49.122a6.944,6.944,0,0,1-4.926-2.04,6.966,6.966,0,0,1,0-9.852L37.23-5.46a6.966,6.966,0,0,1,9.852,0,6.966,6.966,0,0,1,0,9.852L4.392,47.082A6.944,6.944,0,0,1-.534,49.122Z" transform="translate(7.5 36.04)" fill="#e6e6e6"/></g><g transform="translate(194.168 343.66)"><path d="M16.185-7.5A23.685,23.685,0,1,1-7.5,16.185,23.711,23.711,0,0,1,16.185-7.5Zm0,33.437a9.752,9.752,0,1,0-9.752-9.752A9.764,9.764,0,0,0,16.185,25.937Z" transform="translate(7.5 67.873)" fill="#e6e6e6"/><path d="M-.534,66.8A6.966,6.966,0,0,1-7.5,59.839V-.534A6.966,6.966,0,0,1-.534-7.5,6.966,6.966,0,0,1,6.432-.534V59.839A6.966,6.966,0,0,1-.534,66.8Z" transform="translate(24.219 7.5)" fill="#e6e6e6"/></g><g transform="translate(0 245.199)"><path d="M16.185-7.5A23.685,23.685,0,1,1-7.5,16.185,23.711,23.711,0,0,1,16.185-7.5Zm0,33.437a9.752,9.752,0,1,0-9.752-9.752A9.764,9.764,0,0,0,16.185,25.937Z" transform="translate(7.5 7.5)" fill="#e6e6e6"/><path d="M-.542,16.252a6.968,6.968,0,0,1-6.865-5.834,6.966,6.966,0,0,1,5.74-8.006L57.9-7.407a6.966,6.966,0,0,1,8.006,5.74,6.966,6.966,0,0,1-5.74,8.006L.6,16.158A7.016,7.016,0,0,1-.542,16.252Z" transform="translate(40.714 11.682)" fill="#e6e6e6"/></g><g transform="translate(335.811 202.016)"><path d="M16.185-7.5A23.685,23.685,0,1,1-7.5,16.185,23.711,23.711,0,0,1,16.185-7.5Zm0,33.437a9.752,9.752,0,1,0-9.752-9.752A9.764,9.764,0,0,0,16.185,25.937Z" transform="translate(67.873 7.5)" fill="#e6e6e6"/><path d="M59.839,6.432H-.534A6.966,6.966,0,0,1-7.5-.534,6.966,6.966,0,0,1-.534-7.5H59.839A6.966,6.966,0,0,1,66.8-.534,6.966,6.966,0,0,1,59.839,6.432Z" transform="translate(7.5 24.219)" fill="#e6e6e6"/></g><g transform="translate(310.563 276.355)"><path d="M16.185-7.5A23.685,23.685,0,1,1-7.5,16.185,23.711,23.711,0,0,1,16.185-7.5Zm0,33.437a9.752,9.752,0,1,0-9.752-9.752A9.764,9.764,0,0,0,16.185,25.937Z" transform="translate(54.442 34.262)" fill="#e6e6e6"/><path d="M49.314,40.483a6.933,6.933,0,0,1-3.923-1.214L-4.463,5.218A6.966,6.966,0,0,1-6.286-4.463,6.966,6.966,0,0,1,3.395-6.286l49.854,34.05a6.967,6.967,0,0,1-3.935,12.719Z" transform="translate(7.501 7.501)" fill="#e6e6e6"/></g><g transform="translate(51.131 313.297)"><path d="M16.185-7.5A23.685,23.685,0,1,1-7.5,16.185,23.711,23.711,0,0,1,16.185-7.5Zm0,33.437a9.752,9.752,0,1,0-9.752-9.752A9.764,9.764,0,0,0,16.185,25.937Z" transform="translate(7.5 45.293)" fill="#e6e6e6"/><path d="M-.534,49.122a6.944,6.944,0,0,1-4.926-2.04,6.966,6.966,0,0,1,0-9.852L37.23-5.46a6.966,6.966,0,0,1,9.852,0,6.966,6.966,0,0,1,0,9.852L4.392,47.082A6.944,6.944,0,0,1-.534,49.122Z" transform="translate(36.04 7.5)" fill="#e6e6e6"/></g><path d="M16.185-7.5A23.685,23.685,0,1,1-7.5,16.185,23.711,23.711,0,0,1,16.185-7.5Zm0,33.437a9.752,9.752,0,1,0-9.752-9.752A9.764,9.764,0,0,0,16.185,25.937Z" transform="translate(163.586 131.96)" fill="#e6e6e6"/><path d="M11.076-7.5A18.576,18.576,0,1,1-7.5,11.076,18.6,18.6,0,0,1,11.076-7.5Zm0,23.22a4.644,4.644,0,1,0-4.644-4.644A4.649,4.649,0,0,0,11.076,15.72Z" transform="translate(244.393 139.391)" fill="#e6e6e6"/><path d="M11.076-7.5A18.576,18.576,0,1,1-7.5,11.076,18.6,18.6,0,0,1,11.076-7.5Zm0,23.22a4.644,4.644,0,1,0-4.644-4.644A4.649,4.649,0,0,0,11.076,15.72Z" transform="translate(134.793 203.479)" fill="#e6e6e6"/><path d="M11.076-7.5A18.576,18.576,0,1,1-7.5,11.076,18.6,18.6,0,0,1,11.076-7.5Zm0,23.22a4.644,4.644,0,1,0-4.644-4.644A4.649,4.649,0,0,0,11.076,15.72Z" transform="translate(145.939 275.926)" fill="#e6e6e6"/><path d="M11.076-7.5A18.576,18.576,0,1,1-7.5,11.076,18.6,18.6,0,0,1,11.076-7.5Zm0,23.22a4.644,4.644,0,1,0-4.644-4.644A4.649,4.649,0,0,0,11.076,15.72Z" transform="translate(292.691 242.489)" fill="#e6e6e6"/><path d="M16.185-7.5A23.685,23.685,0,1,1-7.5,16.185,23.711,23.711,0,0,1,16.185-7.5Zm0,33.437a9.752,9.752,0,1,0-9.752-9.752A9.764,9.764,0,0,0,16.185,25.937Z" transform="translate(218.386 279.641)" fill="#e6e6e6"/><path d="M20.829-7.5A28.329,28.329,0,1,1-7.5,20.829,28.361,28.361,0,0,1,20.829-7.5Zm0,42.725a14.4,14.4,0,1,0-14.4-14.4A14.413,14.413,0,0,0,20.829,35.225Z" transform="translate(212.813 196.977)" fill="#e6e6e6"/></g></svg>