<svg xmlns="http://www.w3.org/2000/svg" width="65.734" height="65.734" viewBox="0 0 65.734 65.734"><path d="M64.867,0A32.867,32.867,0,1,0,97.734,32.867,32.864,32.864,0,0,0,64.867,0Zm25.96,26.7H87.4a2,2,0,0,0-1.99,1.99v.883a1.993,1.993,0,0,1-1.088,1.782l-1.993.994a1.967,1.967,0,0,1-1.99-.128l-2.332-1.556a1.967,1.967,0,0,0-1.741-.225l-.344.112a1.989,1.989,0,0,0-1.026,2.985l1.71,2.552a1.974,1.974,0,0,0,1.653.882h1.057a1.992,1.992,0,0,1,1.99,1.99v1.461a1.918,1.918,0,0,1-.4,1.188l-2.394,3.21a2.05,2.05,0,0,0-.373.818l-.544,2.937a2.028,2.028,0,0,1-.622,1.107,20.252,20.252,0,0,0-3.2,3.739l-1.679,2.5a3.415,3.415,0,0,1-.772.7,24.4,24.4,0,0,1-3.346.667,3.53,3.53,0,0,1-2.023-1.758,10.132,10.132,0,0,1-1.073-4.526V47.182a2,2,0,0,0-1.994-1.99H59.552a7.007,7.007,0,0,1-7.01-7.01v-1.81a6.987,6.987,0,0,1,2.814-5.6l3.529-2.664a7.1,7.1,0,0,1,4.21-1.4H63.2a7.072,7.072,0,0,1,3.14.738l1.9.947a1.964,1.964,0,0,0,1.518.112l6.079-2.022a2.018,2.018,0,0,0,1.369-1.894,1.992,1.992,0,0,0-1.99-1.99H73.91a1.983,1.983,0,0,1-1.4-.578l-.886-.9a2.022,2.022,0,0,0-1.417-.578H58.64a2,2,0,0,1-1.99-1.99v-.565a2,2,0,0,1,1.509-1.941l1.865-.449a1.963,1.963,0,0,0,1.166-.835l1.042-1.556a2,2,0,0,1,1.647-.881h3.11a1.992,1.992,0,0,0,1.99-1.99V6.512A26.761,26.761,0,0,1,90.827,26.7Z" transform="translate(-32)" fill="#ea4559"/></svg>