<svg xmlns="http://www.w3.org/2000/svg" width="369" height="372.379" viewBox="0 0 369 372.379"><g transform="translate(-108 -372.84)"><g transform="translate(181.153 372.84)"><path d="M146.779,117.594a2.556,2.556,0,0,1-1.749-4.419,54.25,54.25,0,0,1,25.681-13.491,2.556,2.556,0,0,1,1.077,5,49.138,49.138,0,0,0-23.26,12.222A2.547,2.547,0,0,1,146.779,117.594Z" transform="translate(-102.294 -70.523)" fill="#fff"/><path d="M104.825,181.534a2.558,2.558,0,0,1-2.455-3.271,54.038,54.038,0,0,1,7.585-15.835,2.556,2.556,0,1,1,4.191,2.925,48.938,48.938,0,0,0-6.869,14.34A2.557,2.557,0,0,1,104.825,181.534Z" transform="translate(-74.635 -111.205)" fill="#fff"/><path d="M100.271,260.922a2.556,2.556,0,0,1-2.479-1.945A54.57,54.57,0,0,1,96.22,245.95q0-1.314.062-2.612a2.556,2.556,0,0,1,5.105.242q-.056,1.178-.056,2.37a49.455,49.455,0,0,0,1.424,11.806,2.558,2.558,0,0,1-2.484,3.167Z" transform="translate(-70.648 -163.661)" fill="#fff"/><path d="M123.508,331.447a2.547,2.547,0,0,1-1.755-.7,54.165,54.165,0,0,1-12.409-17.554,2.556,2.556,0,1,1,4.675-2.066,49.081,49.081,0,0,0,11.245,15.906,2.555,2.555,0,0,1-1.756,4.413Z" transform="translate(-79.155 -208.954)" fill="#fff"/><path d="M188.032,389.684a2.56,2.56,0,0,1-.531-.056,53.929,53.929,0,0,1-16.909-6.7,2.556,2.556,0,1,1,2.655-4.367,48.834,48.834,0,0,0,15.31,6.07,2.556,2.556,0,0,1-.526,5.056Z" transform="translate(-118.869 -254.166)" fill="#fff"/><path d="M250.774,399.878a2.556,2.556,0,1,1,0-5.111,49.146,49.146,0,0,0,16.052-2.675,2.556,2.556,0,0,1,1.665,4.832A54.25,54.25,0,0,1,250.774,399.878Z" transform="translate(-170.855 -263.242)" fill="#fff"/><path d="M335.629,361.506a2.556,2.556,0,0,1-1.431-4.675,49.517,49.517,0,0,0,9.906-8.822,2.555,2.555,0,1,1,3.879,3.327,54.622,54.622,0,0,1-10.929,9.733A2.544,2.544,0,0,1,335.629,361.506Z" transform="translate(-226.795 -233.684)" fill="#fff"/><path d="M381.852,299.756a2.556,2.556,0,0,1-2.2-3.852,48.829,48.829,0,0,0,5.774-15.015,2.555,2.555,0,0,1,5.007,1.025,53.925,53.925,0,0,1-6.377,16.583A2.555,2.555,0,0,1,381.852,299.756Z" transform="translate(-257.271 -188.675)" fill="#fff"/><path d="M400.891,233.888a2.556,2.556,0,0,1-2.556-2.556,49.628,49.628,0,0,0-.925-9.552,2.556,2.556,0,1,1,5.015-.986,54.75,54.75,0,0,1,1.022,10.538A2.556,2.556,0,0,1,400.891,233.888Z" transform="translate(-269.179 -149.045)" fill="#fff"/><path d="M363.7,152.542a2.553,2.553,0,0,1-2.11-1.11,49.613,49.613,0,0,0-6.147-7.327,2.556,2.556,0,1,1,3.58-3.648,54.737,54.737,0,0,1,6.782,8.083,2.556,2.556,0,0,1-2.105,4Z" transform="translate(-241.042 -96.959)" fill="#fff"/><path d="M296.914,111.569a2.544,2.544,0,0,1-1.421-.434,48.686,48.686,0,0,0-18.882-7.586,2.556,2.556,0,1,1,.878-5.035,53.765,53.765,0,0,1,20.852,8.377,2.556,2.556,0,0,1-1.426,4.678Z" transform="translate(-188.177 -69.765)" fill="#fff"/><g transform="translate(71.231 0)"><path d="M1.189-7.5A8.7,8.7,0,0,1,9.878,1.189,8.7,8.7,0,0,1,1.189,9.878,8.7,8.7,0,0,1-7.5,1.189,8.7,8.7,0,0,1,1.189-7.5Zm0,12.267A3.578,3.578,0,1,0-2.389,1.189,3.582,3.582,0,0,0,1.189,4.767Z" transform="translate(7.5 7.5)" fill="#fff"/><path d="M-4.944,19.759A2.556,2.556,0,0,1-7.5,17.2V-4.944A2.556,2.556,0,0,1-4.944-7.5,2.556,2.556,0,0,1-2.389-4.944V17.2A2.556,2.556,0,0,1-4.944,19.759Z" transform="translate(13.633 19.767)" fill="#fff"/></g><g transform="translate(18.758 19.422)"><path d="M1.189-7.5A8.7,8.7,0,0,1,9.878,1.189,8.7,8.7,0,0,1,1.189,9.878,8.7,8.7,0,0,1-7.5,1.189,8.7,8.7,0,0,1,1.189-7.5Zm0,12.267A3.578,3.578,0,1,0-2.389,1.189,3.582,3.582,0,0,0,1.189,4.767Z" transform="translate(7.5 7.5)" fill="#fff"/><path d="M10.717,13.272a2.548,2.548,0,0,1-1.807-.748L-6.751-3.137a2.556,2.556,0,0,1,0-3.614,2.556,2.556,0,0,1,3.614,0L12.524,8.909a2.556,2.556,0,0,1-1.807,4.363Z" transform="translate(17.97 17.97)" fill="#fff"/></g><g transform="translate(12.123 55.835)"><path d="M1.189-7.5A8.7,8.7,0,0,1,9.878,1.189,8.7,8.7,0,0,1,1.189,9.878,8.7,8.7,0,0,1-7.5,1.189,8.7,8.7,0,0,1,1.189-7.5Zm0,12.267A3.578,3.578,0,1,0-2.389,1.189,3.582,3.582,0,0,0,1.189,4.767Z" transform="translate(7.5 7.5)" fill="#fff"/><path d="M6.954,2.735a2.547,2.547,0,0,1-1.009-.209L-5.956-2.6A2.556,2.556,0,0,1-7.293-5.956,2.556,2.556,0,0,1-3.935-7.293l11.9,5.124a2.556,2.556,0,0,1-1.012,4.9Z" transform="translate(19.271 16.052)" fill="#fff"/></g><g transform="translate(109.734 49.059)"><path d="M1.189-7.5A8.7,8.7,0,0,1,9.878,1.189,8.7,8.7,0,0,1,1.189,9.878,8.7,8.7,0,0,1-7.5,1.189,8.7,8.7,0,0,1,1.189-7.5Zm0,12.267A3.578,3.578,0,1,0-2.389,1.189,3.582,3.582,0,0,0,1.189,4.767Z" transform="translate(16.702 7.5)" fill="#fff"/><path d="M-4.943,4.167A2.553,2.553,0,0,1-7.094,2.994,2.556,2.556,0,0,1-6.328-.538L3.858-7.094a2.556,2.556,0,0,1,3.532.766A2.556,2.556,0,0,1,6.624-2.8L-3.562,3.76A2.544,2.544,0,0,1-4.943,4.167Z" transform="translate(7.501 16.967)" fill="#fff"/></g><g transform="translate(101.216 118.236)"><path d="M1.189-7.5A8.7,8.7,0,0,1,9.878,1.189,8.7,8.7,0,0,1,1.189,9.878,8.7,8.7,0,0,1-7.5,1.189,8.7,8.7,0,0,1,1.189-7.5Zm0,12.267A3.578,3.578,0,1,0-2.389,1.189,3.582,3.582,0,0,0,1.189,4.767Z" transform="translate(10.711 13.701)" fill="#fff"/><path d="M.707,5.049A2.551,2.551,0,0,1-1.33,4.039L-6.98-3.4A2.556,2.556,0,0,1-6.49-6.98,2.556,2.556,0,0,1-2.91-6.49L2.74.948a2.556,2.556,0,0,1-2.033,4.1Z" transform="translate(7.5 7.5)" fill="#fff"/></g><g transform="translate(109.84 19.422)"><path d="M1.189-7.5A8.7,8.7,0,0,1,9.878,1.189,8.7,8.7,0,0,1,1.189,9.878,8.7,8.7,0,0,1-7.5,1.189,8.7,8.7,0,0,1,1.189-7.5Zm0,12.267A3.578,3.578,0,1,0-2.389,1.189,3.582,3.582,0,0,0,1.189,4.767Z" transform="translate(21.365 7.5)" fill="#fff"/><path d="M-4.944,13.272a2.548,2.548,0,0,1-1.807-.748,2.556,2.556,0,0,1,0-3.614L8.909-6.751a2.556,2.556,0,0,1,3.614,0,2.556,2.556,0,0,1,0,3.614L-3.137,12.524A2.548,2.548,0,0,1-4.944,13.272Z" transform="translate(7.5 17.97)" fill="#fff"/></g><g transform="translate(71.231 126.073)"><path d="M1.189-7.5A8.7,8.7,0,0,1,9.878,1.189,8.7,8.7,0,0,1,1.189,9.878,8.7,8.7,0,0,1-7.5,1.189,8.7,8.7,0,0,1,1.189-7.5Zm0,12.267A3.578,3.578,0,1,0-2.389,1.189,3.582,3.582,0,0,0,1.189,4.767Z" transform="translate(7.5 29.648)" fill="#fff"/><path d="M-4.944,19.759A2.556,2.556,0,0,1-7.5,17.2V-4.944A2.556,2.556,0,0,1-4.944-7.5,2.556,2.556,0,0,1-2.389-4.944V17.2A2.556,2.556,0,0,1-4.944,19.759Z" transform="translate(13.633 7.5)" fill="#fff"/></g><g transform="translate(0 89.952)"><path d="M1.189-7.5A8.7,8.7,0,0,1,9.878,1.189,8.7,8.7,0,0,1,1.189,9.878,8.7,8.7,0,0,1-7.5,1.189,8.7,8.7,0,0,1,1.189-7.5Zm0,12.267A3.578,3.578,0,1,0-2.389,1.189,3.582,3.582,0,0,0,1.189,4.767Z" transform="translate(7.5 7.5)" fill="#fff"/><path d="M-4.948,1.213A2.556,2.556,0,0,1-7.467-.928,2.556,2.556,0,0,1-5.361-3.865l21.853-3.6A2.556,2.556,0,0,1,19.43-5.361a2.556,2.556,0,0,1-2.106,2.937L-4.53,1.178A2.574,2.574,0,0,1-4.948,1.213Z" transform="translate(19.686 9.035)" fill="#fff"/></g><g transform="translate(123.194 74.11)"><path d="M1.189-7.5A8.7,8.7,0,0,1,9.878,1.189,8.7,8.7,0,0,1,1.189,9.878,8.7,8.7,0,0,1-7.5,1.189,8.7,8.7,0,0,1,1.189-7.5Zm0,12.267A3.578,3.578,0,1,0-2.389,1.189,3.582,3.582,0,0,0,1.189,4.767Z" transform="translate(29.648 7.5)" fill="#fff"/><path d="M17.2-2.389H-4.944A2.556,2.556,0,0,1-7.5-4.944,2.556,2.556,0,0,1-4.944-7.5H17.2a2.556,2.556,0,0,1,2.556,2.556A2.556,2.556,0,0,1,17.2-2.389Z" transform="translate(7.5 13.633)" fill="#fff"/></g><g transform="translate(113.931 101.382)"><path d="M1.189-7.5A8.7,8.7,0,0,1,9.878,1.189,8.7,8.7,0,0,1,1.189,9.878,8.7,8.7,0,0,1-7.5,1.189,8.7,8.7,0,0,1,1.189-7.5Zm0,12.267A3.578,3.578,0,1,0-2.389,1.189,3.582,3.582,0,0,0,1.189,4.767Z" transform="translate(24.721 17.318)" fill="#fff"/><path d="M13.342,10.1A2.543,2.543,0,0,1,11.9,9.657L-6.386-2.835a2.556,2.556,0,0,1-.669-3.552A2.556,2.556,0,0,1-3.5-7.055L14.785,5.436A2.556,2.556,0,0,1,13.342,10.1Z" transform="translate(7.501 7.501)" fill="#fff"/></g><g transform="translate(18.758 114.934)"><path d="M1.189-7.5A8.7,8.7,0,0,1,9.878,1.189,8.7,8.7,0,0,1,1.189,9.878,8.7,8.7,0,0,1-7.5,1.189,8.7,8.7,0,0,1,1.189-7.5Zm0,12.267A3.578,3.578,0,1,0-2.389,1.189,3.582,3.582,0,0,0,1.189,4.767Z" transform="translate(7.5 21.365)" fill="#fff"/><path d="M-4.944,13.272a2.548,2.548,0,0,1-1.807-.748,2.556,2.556,0,0,1,0-3.614L8.909-6.751a2.556,2.556,0,0,1,3.614,0,2.556,2.556,0,0,1,0,3.614L-3.137,12.524A2.548,2.548,0,0,1-4.944,13.272Z" transform="translate(17.97 7.5)" fill="#fff"/></g><path d="M1.189-7.5A8.7,8.7,0,0,1,9.878,1.189,8.7,8.7,0,0,1,1.189,9.878,8.7,8.7,0,0,1-7.5,1.189,8.7,8.7,0,0,1,1.189-7.5Zm0,12.267A3.578,3.578,0,1,0-2.389,1.189,3.582,3.582,0,0,0,1.189,4.767Z" transform="translate(64.761 53.159)" fill="#fff"/><path d="M-.685-7.5A6.822,6.822,0,0,1,6.13-.685,6.822,6.822,0,0,1-.685,6.13,6.822,6.822,0,0,1-7.5-.685,6.822,6.822,0,0,1-.685-7.5Zm0,8.518a1.706,1.706,0,0,0,1.7-1.7,1.706,1.706,0,0,0-1.7-1.7,1.706,1.706,0,0,0-1.7,1.7A1.706,1.706,0,0,0-.685,1.018Z" transform="translate(94.405 55.885)" fill="#fff"/><path d="M-.685-7.5A6.822,6.822,0,0,1,6.13-.685,6.822,6.822,0,0,1-.685,6.13,6.822,6.822,0,0,1-7.5-.685,6.822,6.822,0,0,1-.685-7.5Zm0,8.518a1.706,1.706,0,0,0,1.7-1.7,1.706,1.706,0,0,0-1.7-1.7,1.706,1.706,0,0,0-1.7,1.7A1.706,1.706,0,0,0-.685,1.018Z" transform="translate(54.198 79.396)" fill="#fff"/><path d="M-.685-7.5A6.822,6.822,0,0,1,6.13-.685,6.822,6.822,0,0,1-.685,6.13,6.822,6.822,0,0,1-7.5-.685,6.822,6.822,0,0,1-.685-7.5Zm0,8.518a1.706,1.706,0,0,0,1.7-1.7,1.706,1.706,0,0,0-1.7-1.7,1.706,1.706,0,0,0-1.7,1.7A1.706,1.706,0,0,0-.685,1.018Z" transform="translate(58.287 105.973)" fill="#fff"/><path d="M-.685-7.5A6.822,6.822,0,0,1,6.13-.685,6.822,6.822,0,0,1-.685,6.13,6.822,6.822,0,0,1-7.5-.685,6.822,6.822,0,0,1-.685-7.5Zm0,8.518a1.706,1.706,0,0,0,1.7-1.7,1.706,1.706,0,0,0-1.7-1.7,1.706,1.706,0,0,0-1.7,1.7A1.706,1.706,0,0,0-.685,1.018Z" transform="translate(112.124 93.707)" fill="#fff"/><path d="M1.189-7.5A8.7,8.7,0,0,1,9.878,1.189,8.7,8.7,0,0,1,1.189,9.878,8.7,8.7,0,0,1-7.5,1.189,8.7,8.7,0,0,1,1.189-7.5Zm0,12.267A3.578,3.578,0,1,0-2.389,1.189,3.582,3.582,0,0,0,1.189,4.767Z" transform="translate(84.865 107.336)" fill="#fff"/><path d="M2.893-7.5A10.393,10.393,0,1,1-7.5,2.893,10.4,10.4,0,0,1,2.893-7.5Zm0,15.674A5.281,5.281,0,1,0-2.389,2.893,5.287,5.287,0,0,0,2.893,8.174Z" transform="translate(82.82 77.011)" fill="#fff"/></g><text transform="translate(108 531.327)" fill="#fff" font-size="54" font-family="SegoeUI, Segoe UI"><tspan x="0" y="0">The</tspan><tspan font-size="132"><tspan x="0" y="108">CoVID</tspan></tspan></text><text transform="translate(108 731.219)" fill="#fff" font-size="54" font-family="SegoeUI, Segoe UI" letter-spacing="0.4em"><tspan x="0" y="0">Report</tspan></text><rect width="234.539" height="21.322" transform="translate(108 652.901)" fill="#fff"/></g></svg>