<svg xmlns="http://www.w3.org/2000/svg" width="34" height="34" viewBox="0 0 34 34"><g transform="translate(0 0.179)"><g transform="translate(2.828 3.215)"><path d="M24.522,30.8h-13.9c-3.25,0-4.391-1.658-4.391-3.208V19.039H5.883a2.885,2.885,0,0,1-2.617-1.691,2.852,2.852,0,0,1,.465-3.068l7.727-8.769a7.413,7.413,0,0,1,11.084,0l7.727,8.769a2.8,2.8,0,0,1,.463,3.069,2.864,2.864,0,0,1-2.637,1.69h-.344v8.555A3.218,3.218,0,0,1,24.522,30.8ZM16.989,5.137A5.245,5.245,0,0,0,13.06,6.9L5.334,15.671a.724.724,0,0,0-.14.8.732.732,0,0,0,.689.432H7.3A1.073,1.073,0,0,1,8.38,17.97v9.624c0,.93,1.41,1.069,2.249,1.069H24.522A1.073,1.073,0,0,0,25.6,27.594V17.97a1.066,1.066,0,0,1,.323-.759,1.08,1.08,0,0,1,.753-.31h1.41a.732.732,0,0,0,.667-.428.724.724,0,0,0-.118-.78L20.906,6.923a5.233,5.233,0,0,0-3.917-1.786Z" transform="translate(-3.012 -3.022)" fill="#e74558"/><path d="M18.725,28.529H12.961A.961.961,0,0,1,12,27.569V20.843a3.843,3.843,0,1,1,7.686,0v6.725A.961.961,0,0,1,18.725,28.529Zm-4.8-1.922h3.843V20.843a1.922,1.922,0,1,0-3.843,0Z" transform="translate(-1.867 -0.749)" fill="#e74558"/></g><g transform="translate(0 -0.179)"><rect width="34" height="34" fill="none"/></g></g></svg>