<svg xmlns="http://www.w3.org/2000/svg" width="157.475" height="162.942" viewBox="0 0 157.475 162.942"><g transform="translate(0 0)"><g transform="translate(34.959 35.675)"><g transform="translate(8.035 34.722)"><path d="M97.488,120.345h0a32.457,32.457,0,0,1-5.273-.527l-12.919-2.9-44.822,1.055H33.418A10.027,10.027,0,0,1,23.4,109.007a10.6,10.6,0,0,1,2.109-7.382,9.345,9.345,0,0,1,6.328-3.691l-5.01-.527h-.264a9.263,9.263,0,0,1-6.328-4.482,9.848,9.848,0,0,1-1.318-7.646,11.734,11.734,0,0,1,3.164-5.537,6.225,6.225,0,0,1-2.109-2.373,10.256,10.256,0,0,1,2.637-13.71,10.1,10.1,0,0,1,7.646-16.874,5.805,5.805,0,0,1,2.109.264l34.8,7.646L57.939,45.2a10.356,10.356,0,0,1-2.9-7.382A9.416,9.416,0,0,1,58.2,30.7a10.187,10.187,0,0,1,7.119-2.9A9.574,9.574,0,0,1,72.7,30.964L98.015,57.33l7.382,1.582a23.9,23.9,0,0,1,16.874,13.183l9.755,8.964a2.658,2.658,0,0,1,.791,2.373L128.6,110.589a2.861,2.861,0,0,1-2.109,2.109l-14.765,3.164A24.666,24.666,0,0,1,97.488,120.345Zm-17.929-8.7h.527l13.447,2.9a18.876,18.876,0,0,0,15.82-3.428c.264-.264.527-.264,1.055-.527l13.71-2.9L127.809,83.7l-9.228-7.91c-.264-.264-.527-.527-.527-.791a19.814,19.814,0,0,0-13.447-10.81L96.433,62.34a1.45,1.45,0,0,1-1.318-.791l-26.1-27.157a5.222,5.222,0,0,0-6.855-.264,6.9,6.9,0,0,0-1.582,3.428,5.012,5.012,0,0,0,1.318,3.428L77.186,56.8a2.8,2.8,0,0,1,.527,3.164,2.651,2.651,0,0,1-2.9,1.318l-43.5-9.228A4.862,4.862,0,0,0,29.2,61.549l37.44,8.173a2.735,2.735,0,0,1,2.109,3.164A2.551,2.551,0,0,1,65.585,75L29.991,67.349a4.857,4.857,0,0,0-5.8,3.691,4.576,4.576,0,0,0,.791,3.691,5.248,5.248,0,0,0,3.164,2.109L64,84.487a2.568,2.568,0,0,1,2.109,2.637v.527a2.735,2.735,0,0,1-3.164,2.109l-32.43-6.855a5.072,5.072,0,0,0-5.8,3.691,4.576,4.576,0,0,0,.791,3.691,4.691,4.691,0,0,0,2.9,2.109l34.012,2.9a2.651,2.651,0,0,1,0,5.273l-28.475,2.637a4.89,4.89,0,0,0-3.164,1.846,6.054,6.054,0,0,0-1.055,3.691A4.759,4.759,0,0,0,35,112.962l44.559-1.318Z" transform="translate(-18.406 -27.8)" fill="#fff"/></g><path d="M122.249,93.384a2.377,2.377,0,0,1-1.318-.264,3.261,3.261,0,0,1-1.055-3.691l.527-1.318L114.6,77.3c-.264-.264-.264-.527-.264-1.055a19.756,19.756,0,0,0-9.492-14.5L97.729,57.79a2.059,2.059,0,0,1-1.055-1.055L80.327,22.723a5.144,5.144,0,0,0-6.592-2.373,4.81,4.81,0,0,0-2.109,6.592l9.755,19.775a2.8,2.8,0,0,1-.527,3.164,2.4,2.4,0,0,1-3.164.264L39.2,27.733a4.487,4.487,0,0,0-3.691-.527,4.082,4.082,0,0,0-2.9,2.109,4.788,4.788,0,0,0,1.846,6.592L64.508,54.1a2.715,2.715,0,1,1-2.637,4.746L32.6,41.707a4.84,4.84,0,1,0-4.746,8.437l2.9,1.846h0L59.235,68.6a2.769,2.769,0,0,1,1.318,2.373,2.377,2.377,0,0,1-.264,1.318A2.919,2.919,0,0,1,56.6,73.346L28.123,56.736a4.788,4.788,0,0,0-6.592,1.846A4.487,4.487,0,0,0,21,62.272a4.082,4.082,0,0,0,2.109,2.9L33.4,69.655A2.6,2.6,0,1,1,31.287,74.4L20.74,69.919a.258.258,0,0,1-.264-.264,10.526,10.526,0,0,1-4.746-6.328,9.741,9.741,0,0,1,1.055-7.646,10.475,10.475,0,0,1,4.746-4.219,10.728,10.728,0,0,1-.264-10.546,9.8,9.8,0,0,1,5.8-4.482,10.16,10.16,0,0,1,.527-9.492A10.78,10.78,0,0,1,33.66,22.2a9.741,9.741,0,0,1,7.646,1.055L72.418,41.443l-5.8-12.128A10.259,10.259,0,1,1,85.073,20.35l16.083,33.221,6.328,3.691a25.473,25.473,0,0,1,12.128,17.929l6.328,11.6a1.977,1.977,0,0,1,0,2.373l-1.318,2.373A2.447,2.447,0,0,1,122.249,93.384Z" transform="translate(-15.359 -14.631)" fill="#fff"/></g><g transform="translate(42.977)"><path d="M30.265,31.157A11.815,11.815,0,0,1,18.4,19.293c0-5.8,8.173-15.556,9.755-17.4a2.867,2.867,0,0,1,3.955,0c1.582,1.846,9.755,11.6,9.755,17.4A11.435,11.435,0,0,1,30.265,31.157Zm0-23.466c-3.164,3.955-6.592,9.228-6.592,11.6a6.592,6.592,0,1,0,13.183,0C36.856,17.183,33.429,11.91,30.265,7.692Z" transform="translate(-18.4 -1.1)" fill="#fff"/></g><g transform="translate(88.326)"><path d="M47.465,31.157A11.815,11.815,0,0,1,35.6,19.293c0-5.8,8.173-15.556,9.755-17.4a2.867,2.867,0,0,1,3.955,0c1.582,1.846,9.755,11.6,9.755,17.4A11.435,11.435,0,0,1,47.465,31.157Zm0-23.466c-3.164,3.955-6.592,9.228-6.592,11.6a6.592,6.592,0,0,0,13.183,0C54.056,17.183,50.629,11.91,47.465,7.692Z" transform="translate(-35.6 -1.1)" fill="#fff"/></g><g transform="translate(0 26.102)"><path d="M18.183,52.395A16.147,16.147,0,0,1,2.1,36.311c0-8.173,12.656-22.675,13.974-24.52A2.994,2.994,0,0,1,18.183,11h0a2.994,2.994,0,0,1,2.109.791c1.318,1.582,13.974,16.347,13.974,24.52A16.32,16.32,0,0,1,18.183,52.395Zm0-34.54c-4.746,5.8-10.81,14.5-10.81,18.72a10.81,10.81,0,1,0,21.62,0C28.73,32.356,22.929,23.656,18.183,17.855Z" transform="translate(-2.1 -11)" fill="#fff"/></g></g></svg>