<svg xmlns="http://www.w3.org/2000/svg" width="200.568" height="142.906" viewBox="0 0 200.568 142.906"><path d="M200.568,47.008c0-14.667-5.3-21.733-9.746-25.071a16.86,16.86,0,0,0-14.62-3.009c-9.4,2.679-15.309,14.1-17.769,19.916-.423-.157-.83-.3-1.269-.423-5.171-1.473-10.875-3.7-16.923-6.048-12.536-4.889-26.81-10.42-40-10.42-14.573,0-31.464,6.644-45.034,11.971-4.4,1.739-8.571,3.385-12.05,4.544-.329.11-.674.266-1,.407-2.46-5.782-8.4-17.236-17.785-19.947a16.845,16.845,0,0,0-14.62,3.009C5.3,25.275,0,32.342,0,47.008c0,22.58,27.829,66.36,29.02,68.272h0c3.964,11.705,8.226,21.749,10.5,24.068,12.755,12.943,42.2,21.937,60.656,21.937s48.011-9.026,60.656-21.937c2.272-2.319,6.722-12.614,10.828-24.4C174.338,110.877,200.568,68.93,200.568,47.008ZM177.926,24.946a10.53,10.53,0,0,1,9.12,1.974c4.7,3.526,7.255,10.655,7.255,20.088,0,10.969-7.741,28.315-15.09,42.307a60.423,60.423,0,0,0,1.567-10.859c.266-12.253-7-28.894-16.892-36.51C166.1,36.447,171.251,26.857,177.926,24.946ZM6.268,47.008c0-9.4,2.57-16.563,7.255-20.088a10.514,10.514,0,0,1,9.12-1.974c6.659,1.9,11.8,11.533,14.1,17.048-9.308,7.067-16.688,21.53-16.688,34.473a71.938,71.938,0,0,0,2.021,14.1C14.463,76.357,6.268,58.29,6.268,47.008Zm150.144,88.031c-10.091,10.326-37.325,20.088-56.128,20.088-19.038,0-45.817-9.59-56.19-20.1-3.134-3.306-17.8-43.874-17.8-58.557,0-13.006,9.4-28.894,18.9-32.075,3.62-1.207,7.835-2.868,12.363-4.7,12.959-5.093,29.3-11.486,42.73-11.486,12.018,0,25.071,5.077,37.732,10,6.268,2.4,12.018,4.7,17.487,6.268a12.912,12.912,0,0,1,2.915,1.316,3.538,3.538,0,0,0,.407.251c8.273,5.265,16.014,20.449,15.669,32.326C174.212,92.638,159.421,131.89,156.412,135.039Z" transform="translate(0 -18.379)" fill="#fff"/><path d="M111.517,72.33c-.235,0-23.5,4.262-33.909,4.262S43.935,72.377,43.7,72.33A3.138,3.138,0,1,0,42.571,78.5c.987.172,24.068,4.325,35.037,4.325s34.05-4.184,35.037-4.356a3.138,3.138,0,1,0-1.128-6.174Z" transform="translate(22.676 12.16)" fill="#fff"/><path d="M111.517,59.33c-.235,0-23.5,4.262-33.909,4.262S43.935,59.377,43.7,59.33A3.138,3.138,0,0,0,42.571,65.5c.987.172,24.068,4.325,35.037,4.325s34.05-4.184,35.037-4.356a3.138,3.138,0,0,0-1.128-6.174Z" transform="translate(22.676 4.79)" fill="#fff"/><path d="M111.517,46.33c-.235,0-23.5,4.262-33.909,4.262S43.935,46.377,43.7,46.33A3.138,3.138,0,0,0,42.571,52.5c.987.172,24.068,4.325,35.037,4.325s34.05-4.184,35.037-4.356a3.138,3.138,0,0,0-1.128-6.174Z" transform="translate(22.676 -2.58)" fill="#fff"/></svg>