<svg xmlns="http://www.w3.org/2000/svg" width="163.43" height="163.799" viewBox="0 0 163.43 163.799"><g transform="translate(47.653 39.108)"><g transform="translate(9.717)"><g transform="translate(8.789)"><path d="M3.291-7.5A10.791,10.791,0,1,1-7.5,3.291,10.8,10.8,0,0,1,3.291-7.5Zm0,16.653A5.862,5.862,0,1,0-2.57,3.291,5.868,5.868,0,0,0,3.291,9.153Z" transform="translate(11.291 7.5)" fill="#fff"/><path d="M-.648,55.5A2.465,2.465,0,0,1-3.1,53.217L-7.493-4.85A2.465,2.465,0,0,1-5.221-7.493,2.465,2.465,0,0,1-2.578-5.221l4.39,58.067A2.465,2.465,0,0,1-.459,55.489Q-.554,55.5-.648,55.5Z" transform="translate(7.5 58.835)" fill="#fff"/><path d="M-5.033,55.825c-.059,0-.118,0-.177-.006a2.465,2.465,0,0,1-2.284-2.633L-3.34-5.21A2.465,2.465,0,0,1-.707-7.494,2.465,2.465,0,0,1,1.577-4.861l-4.154,58.4A2.465,2.465,0,0,1-5.033,55.825Z" transform="translate(28.563 58.835)" fill="#fff"/><path d="M-5.035,43.522A2.465,2.465,0,0,1-7.5,41.057V-5.035A2.465,2.465,0,0,1-5.035-7.5,2.465,2.465,0,0,1-2.57-5.035V41.057A2.465,2.465,0,0,1-5.035,43.522Z" transform="translate(20.237 71.137)" fill="#fff"/></g><path d="M277.383,225.843a6.241,6.241,0,0,1-6.113-5.084l-5.23-27.5a2.465,2.465,0,1,1,4.843-.921l5.231,27.509a1.306,1.306,0,1,0,2.564-.5l-6.541-32.283a6.078,6.078,0,0,0-3.7-4.106l-5.459-2.113a2.465,2.465,0,1,1,1.78-4.6l5.459,2.113a11.052,11.052,0,0,1,6.723,7.616l6.566,32.392a6.246,6.246,0,0,1-6.126,7.476Z" transform="translate(-235.697 -159.507)" fill="#fff"/><path d="M189.427,225.843a6.246,6.246,0,0,1-6.126-7.476l6.541-32.283a11.1,11.1,0,0,1,6.748-7.725l5.459-2.113a2.465,2.465,0,1,1,1.78,4.6l-5.459,2.113a6.116,6.116,0,0,0-3.721,4.215l-6.517,32.175a1.306,1.306,0,1,0,2.563.5l5.232-27.513a2.465,2.465,0,1,1,4.843.921l-5.231,27.509a6.241,6.241,0,0,1-6.112,5.08Z" transform="translate(-183.176 -159.507)" fill="#fff"/></g><path d="M187.294,460.5c-16.224,0-33.686-3.651-33.686-11.667,0-5.7,8.524-8.6,15.674-10.033a2.465,2.465,0,0,1,.968,4.834c-8.764,1.756-11.713,4.306-11.713,5.2,0,2.015,9.784,6.737,28.756,6.737s28.756-4.722,28.756-6.737c0-.915-3.032-3.51-12.04-5.264a2.465,2.465,0,1,1,.942-4.839c7.312,1.424,16.027,4.332,16.027,10.1C220.979,456.853,203.518,460.5,187.294,460.5Z" transform="translate(-153.608 -335.813)" fill="#fff"/></g><g transform="translate(0 0)"><g transform="translate(17.309)"><path d="M.324-7.5A7.833,7.833,0,0,1,8.148.324,7.833,7.833,0,0,1,.324,8.148,7.833,7.833,0,0,1-7.5.324,7.833,7.833,0,0,1,.324-7.5Zm0,10.718A2.9,2.9,0,0,0,3.218.324,2.9,2.9,0,0,0,.324-2.57,2.9,2.9,0,0,0-2.57.324,2.9,2.9,0,0,0,.324,3.218Z" transform="translate(7.5 7.5)" fill="#fff"/></g><path d="M33.468,228.933c-2.545,0-24.86-.235-24.86-8.388,0-3.449,3.987-5.915,11.852-7.328a2.465,2.465,0,0,1,.872,4.852c-4.578.823-6.75,1.9-7.535,2.49C15.538,221.948,22.676,224,33.468,224s17.931-2.055,19.672-3.444c-.8-.6-3.033-1.7-7.768-2.531a2.465,2.465,0,1,1,.849-4.856c8.034,1.4,12.107,3.885,12.107,7.373C58.329,228.7,36.013,228.933,33.468,228.933Z" transform="translate(-8.608 -145.277)" fill="#fff"/><path d="M53.675,101.318a2.465,2.465,0,0,1-2.423-2.026L45.512,67.566a31.623,31.623,0,0,1-.5-6.083l.227-15.47A10.58,10.58,0,0,1,49.6,37.628l2.631-1.9a2.465,2.465,0,1,1,2.886,4l-2.631,1.9a5.629,5.629,0,0,0-2.322,4.461l-.227,15.47a26.682,26.682,0,0,0,.423,5.133L56.1,98.414a2.467,2.467,0,0,1-2.428,2.9Z" transform="translate(-33.045 -25.86)" fill="#fff"/><path d="M92.655,101.318a2.467,2.467,0,0,1-2.428-2.9l5.741-31.726a26.682,26.682,0,0,0,.423-5.133l-.227-15.47a5.629,5.629,0,0,0-2.322-4.461l-2.631-1.9a2.465,2.465,0,0,1,2.886-4l2.631,1.9a10.58,10.58,0,0,1,4.365,8.385l.227,15.47a31.624,31.624,0,0,1-.5,6.083L95.077,99.292A2.466,2.466,0,0,1,92.655,101.318Z" transform="translate(-63.377 -25.86)" fill="#fff"/></g><g transform="translate(113.709 0)"><g transform="translate(17.309)"><path d="M.324-7.5A7.833,7.833,0,0,1,8.148.324,7.833,7.833,0,0,1,.324,8.148,7.833,7.833,0,0,1-7.5.324,7.833,7.833,0,0,1,.324-7.5Zm0,10.718A2.9,2.9,0,0,0,3.218.324,2.9,2.9,0,0,0,.324-2.57,2.9,2.9,0,0,0-2.57.324,2.9,2.9,0,0,0,.324,3.218Z" transform="translate(7.5 7.5)" fill="#fff"/></g><path d="M379.468,228.933c-2.545,0-24.86-.235-24.86-8.388,0-3.449,3.987-5.915,11.852-7.328a2.465,2.465,0,1,1,.872,4.852c-4.578.823-6.75,1.9-7.535,2.49,1.742,1.389,8.879,3.444,19.672,3.444s17.931-2.055,19.672-3.444c-.8-.6-3.033-1.7-7.768-2.531a2.465,2.465,0,0,1,.849-4.856c8.034,1.4,12.107,3.885,12.107,7.373C404.329,228.7,382.013,228.933,379.468,228.933Z" transform="translate(-354.608 -145.277)" fill="#fff"/><path d="M399.675,101.318a2.465,2.465,0,0,1-2.423-2.026l-5.741-31.726a31.619,31.619,0,0,1-.5-6.083l.227-15.47a10.58,10.58,0,0,1,4.365-8.385l2.631-1.9a2.465,2.465,0,0,1,2.886,4l-2.631,1.9a5.629,5.629,0,0,0-2.322,4.461l-.227,15.47a26.679,26.679,0,0,0,.423,5.133L402.1,98.414a2.467,2.467,0,0,1-2.428,2.9Z" transform="translate(-379.045 -25.86)" fill="#fff"/><path d="M438.655,101.318a2.467,2.467,0,0,1-2.428-2.9l5.741-31.726a26.678,26.678,0,0,0,.423-5.133l-.227-15.47a5.629,5.629,0,0,0-2.322-4.461l-2.631-1.9a2.465,2.465,0,0,1,2.886-4l2.631,1.9a10.58,10.58,0,0,1,4.365,8.385l.227,15.47a31.618,31.618,0,0,1-.5,6.083l-5.741,31.725A2.466,2.466,0,0,1,438.655,101.318Z" transform="translate(-409.377 -25.86)" fill="#fff"/></g></svg>