<svg xmlns="http://www.w3.org/2000/svg" width="28.718" height="28.714" viewBox="0 0 28.718 28.714"><g transform="translate(0)"><path d="M23.186,12.459a10.739,10.739,0,0,0-3.832-8,10.57,10.57,0,0,0-8.657-2.3A10.709,10.709,0,0,0,2.019,13.409a11.184,11.184,0,0,0,1.451,4.625c.171.341.336.666.479.986a10.956,10.956,0,0,1-.615,10.165A1.025,1.025,0,0,0,4.22,30.71H16.355a1.025,1.025,0,0,0,1.025-1.025V25.863h1.195a3.437,3.437,0,0,0,3.42-3.449V19.8h1.368A2.236,2.236,0,0,0,25.3,16.466Zm.319,5.2a.155.155,0,0,1-.145.088H20.969a1.025,1.025,0,0,0-1.025,1.025v3.635a1.384,1.384,0,0,1-1.367,1.4H14.285a3.01,3.01,0,0,1-2.153-.907,1.026,1.026,0,0,0-1.46,1.441,5.051,5.051,0,0,0,3.617,1.516H15.33v2.8H5.865A12.9,12.9,0,0,0,5.825,18.2c-.153-.353-.334-.718-.525-1.091A9.228,9.228,0,0,1,4.069,13.3a8.554,8.554,0,0,1,6.988-9.11,8.416,8.416,0,0,1,6.984,1.846,8.7,8.7,0,0,1,3.1,6.684,1.025,1.025,0,0,0,.118.478l2.247,4.269a.188.188,0,0,1,0,.2Z" transform="translate(-1.994 -1.996)" fill="#ea4559"/><path d="M29.493,5.741c-.477-1.2-.578-1.655-.244-1.971A1.025,1.025,0,1,0,27.841,2.28c-1.4,1.324-.738,3-.254,4.218.471,1.186.573,1.631.253,1.934a1.025,1.025,0,1,0,1.408,1.491C30.633,8.616,29.974,6.954,29.493,5.741Z" transform="translate(-1.36 -1.996)" fill="#ea4559"/><path d="M25.178,3.831A1.025,1.025,0,1,0,23.91,2.219c-1.538,1.213-.762,2.849-.3,3.826.513,1.068.454,1.176.3,1.3a1.025,1.025,0,1,0,1.267,1.611c1.524-1.2.75-2.823.287-3.794C24.948,4.075,25,3.969,25.178,3.831Z" transform="translate(-1.461 -1.996)" fill="#ea4559"/><path d="M9.713,6.492C9.075,7.537,7,11.084,7,12.664a3.589,3.589,0,1,0,7.177,0c0-1.58-2.075-5.127-2.713-6.172a1.066,1.066,0,0,0-1.751,0Zm.876,7.71a1.538,1.538,0,0,1-1.538-1.538,13.227,13.227,0,0,1,1.538-3.581,13.206,13.206,0,0,1,1.538,3.581A1.538,1.538,0,0,1,10.589,14.2Z" transform="translate(-1.867 -1.894)" fill="#ea4559"/></g></svg>