<svg xmlns="http://www.w3.org/2000/svg" width="27.457" height="27.457" viewBox="0 0 27.457 27.457"><path d="M45.729,0A13.729,13.729,0,1,0,59.457,13.729,13.728,13.728,0,0,0,45.729,0ZM56.572,11.155H55.14a.836.836,0,0,0-.831.831v.369a.832.832,0,0,1-.455.744l-.832.415a.822.822,0,0,1-.831-.054l-.974-.65a.822.822,0,0,0-.727-.094l-.144.047a.831.831,0,0,0-.429,1.247l.714,1.066a.824.824,0,0,0,.69.368h.442a.832.832,0,0,1,.831.831v.61a.8.8,0,0,1-.169.5l-1,1.341a.856.856,0,0,0-.156.342l-.227,1.227a.847.847,0,0,1-.26.463,8.459,8.459,0,0,0-1.338,1.562l-.7,1.046a1.427,1.427,0,0,1-.322.294,10.193,10.193,0,0,1-1.4.279,1.475,1.475,0,0,1-.845-.734,4.232,4.232,0,0,1-.448-1.89v-1.6a.834.834,0,0,0-.833-.831H43.508a2.927,2.927,0,0,1-2.928-2.928v-.756a2.919,2.919,0,0,1,1.176-2.34L43.23,11.74a2.963,2.963,0,0,1,1.758-.586h.045a2.954,2.954,0,0,1,1.312.308l.792.4a.82.82,0,0,0,.634.047l2.539-.845a.843.843,0,0,0,.572-.791.832.832,0,0,0-.831-.831h-.545a.828.828,0,0,1-.585-.241l-.37-.375a.844.844,0,0,0-.592-.241H43.128a.836.836,0,0,1-.831-.831V7.513a.837.837,0,0,1,.63-.811l.779-.188a.82.82,0,0,0,.487-.349l.435-.65a.836.836,0,0,1,.688-.368h1.3a.832.832,0,0,0,.831-.831V2.72A11.178,11.178,0,0,1,56.572,11.155Z" transform="translate(-32)" fill="#101010"/></svg>